<svg width="187" height="36" viewBox="0 0 187 36" fill="none" xmlns="http://www.w3.org/2000/svg">
<path d="M58.6142 15.8193C58.0058 15.1094 57.2959 14.3995 56.4846 13.9939C55.2677 13.3855 53.9494 12.9798 52.5297 12.9798C50.8058 12.9798 49.3861 13.3855 48.0677 14.0953C46.7494 14.8052 45.7354 15.8193 44.9241 17.1376C44.1128 18.4559 43.8086 19.977 43.8086 21.8024C43.8086 23.5263 44.2142 25.1488 44.9241 26.4671C45.7354 27.7855 46.7494 28.7995 48.0677 29.6108C49.3861 30.3207 50.9072 30.7263 52.5297 30.7263C54.0508 30.7263 55.3692 30.4221 56.5861 29.7122C57.3973 29.2052 58.1072 28.5967 58.7156 27.7855V30.5235H61.7579V6.28687H58.6142V15.8193ZM57.9044 25.0474C57.3973 25.9601 56.6875 26.67 55.7748 27.177C54.8621 27.684 53.9494 27.8869 52.8339 27.8869C51.7185 27.8869 50.7044 27.684 49.8931 27.177C48.9804 26.67 48.372 25.9601 47.7635 25.0474C47.2565 24.1348 46.9523 23.0193 46.9523 21.8024C46.9523 20.5855 47.2565 19.47 47.7635 18.5573C48.2706 17.6446 48.9804 16.9348 49.8931 16.4277C50.8058 15.9207 51.7185 15.7179 52.8339 15.7179C53.9494 15.7179 54.8621 15.9207 55.7748 16.4277C56.6875 16.9348 57.3973 17.6446 57.9044 18.5573C58.4114 19.47 58.7156 20.484 58.7156 21.8024C58.7156 23.1207 58.4114 24.1348 57.9044 25.0474Z" fill="white"/>
<path d="M78.2886 14.1978C76.9703 13.4879 75.5505 13.0823 73.8266 13.0823C72.2041 13.0823 70.6829 13.4879 69.3646 14.1978C68.0463 14.9076 67.0322 16.0231 66.221 17.3414C65.5111 18.6597 65.1055 20.1809 65.1055 21.9048C65.1055 23.6288 65.5111 25.1499 66.221 26.4682C67.0322 27.7865 68.0463 28.8006 69.466 29.6119C70.8857 30.4231 72.5083 30.7273 74.3336 30.7273C75.7534 30.7273 77.0717 30.5245 78.1872 30.0175C79.3026 29.5104 80.3167 28.8006 81.128 27.8879L79.4041 25.8597C78.7956 26.5696 78.0857 27.0766 77.1731 27.3809C76.3618 27.6851 75.4491 27.8879 74.3336 27.8879C73.1167 27.8879 72.0012 27.6851 71.0886 27.178C70.1759 26.671 69.3646 25.9611 68.8576 25.0485C68.4519 24.3386 68.2491 23.6288 68.1477 22.8175H82.1421C82.1421 22.7161 82.1421 22.5133 82.1421 22.3104C82.1421 22.1076 82.1421 22.0062 82.1421 21.8034C82.1421 19.9781 81.7364 18.4569 81.0266 17.1386C80.621 15.9217 79.6069 14.9076 78.2886 14.1978ZM70.9872 16.4288C71.7984 15.9217 72.8125 15.7189 73.928 15.7189C75.0435 15.7189 76.0576 15.9217 76.8688 16.4288C77.6801 16.9358 78.39 17.6457 78.7956 18.4569C79.2012 19.1668 79.4041 19.8766 79.4041 20.6879H68.2491C68.3505 19.8766 68.5534 19.1668 68.959 18.5583C69.466 17.6457 70.0745 16.9358 70.9872 16.4288Z" fill="white"/>
<path d="M100.394 13.1833H97.25V30.4228H100.394V13.1833Z" fill="white"/>
<path d="M91.8774 6.08484C90.052 6.08484 88.6323 6.59188 87.6182 7.60597C86.6041 8.62005 86.0971 9.93836 86.0971 11.6623V13.1834H83.1562V15.7186H86.0971V30.4229H89.2408V15.8201H94.2098V13.1834H89.1393V11.6623C89.1393 10.6482 89.3422 9.93836 89.8492 9.43132C90.3562 8.92428 91.0661 8.62005 91.9788 8.62005C92.3844 8.62005 92.8915 8.72146 93.2971 8.82287C93.7027 8.92428 94.1084 9.12709 94.4126 9.43132L95.4267 7.09892C95.021 6.7947 94.514 6.49047 93.8041 6.28766C93.1957 6.18625 92.5872 6.08484 91.8774 6.08484Z" fill="white"/>
<path d="M109.924 16.5302C110.837 16.0231 111.851 15.8203 112.967 15.8203C113.879 15.8203 114.792 16.0231 115.603 16.4288C116.414 16.8344 117.124 17.4428 117.631 18.2541L119.964 16.733C119.254 15.5161 118.341 14.6034 117.124 13.995C115.907 13.3865 114.488 13.0823 112.967 13.0823C111.243 13.0823 109.62 13.4879 108.302 14.1978C106.882 14.9076 105.868 16.0231 105.057 17.3414C104.245 18.6597 103.84 20.1809 103.84 21.9048C103.84 23.6288 104.245 25.1499 105.057 26.4682C105.868 27.7865 106.882 28.8006 108.302 29.6119C109.722 30.4231 111.243 30.7273 112.967 30.7273C114.488 30.7273 115.907 30.4231 117.124 29.8147C118.341 29.2062 119.254 28.2935 119.964 27.0766L117.631 25.5555C117.023 26.3668 116.414 27.0766 115.603 27.3809C114.792 27.7865 113.879 27.9893 112.967 27.9893C111.851 27.9893 110.837 27.7865 109.924 27.2795C109.012 26.7724 108.302 26.0626 107.795 25.1499C107.288 24.2372 106.984 23.1217 106.984 21.9048C106.984 20.6879 107.288 19.5724 107.795 18.6597C108.302 17.7471 109.012 17.0372 109.924 16.5302Z" fill="white"/>
<path d="M135.683 13.8925C134.568 13.3855 133.351 13.0812 131.931 13.0812C130.41 13.0812 128.99 13.3855 127.773 13.9939C126.962 14.3995 126.354 15.008 125.745 15.7179V6.28687H122.602V30.5235H125.745V21.5995C125.745 20.3826 125.948 19.2671 126.455 18.4559C126.861 17.6446 127.571 16.9348 128.382 16.5291C129.193 16.1235 130.207 15.9207 131.323 15.9207C132.844 15.9207 133.959 16.3263 134.771 17.239C135.582 18.0502 135.987 19.3686 135.987 20.9911V30.6249H139.131V20.6869C139.131 18.9629 138.827 17.5432 138.218 16.5291C137.509 15.2108 136.697 14.3995 135.683 13.8925Z" fill="white"/>
<path d="M149.781 13.0824C148.361 13.0824 147.144 13.2852 145.826 13.6908C144.609 14.0965 143.494 14.6035 142.581 15.3134L143.899 17.6458C144.609 17.0373 145.421 16.6317 146.333 16.3275C147.347 16.0232 148.361 15.8204 149.375 15.8204C150.897 15.8204 152.113 16.2261 152.823 16.9359C153.635 17.6458 153.939 18.6599 153.939 19.9782V20.5866H148.97C147.246 20.5866 145.928 20.7894 144.913 21.2965C143.899 21.8035 143.19 22.412 142.683 23.1218C142.277 23.9331 141.973 24.7444 141.973 25.657C141.973 26.6711 142.277 27.4824 142.784 28.2937C143.291 29.1049 144.001 29.7134 145.015 30.119C146.029 30.5247 147.144 30.7275 148.361 30.7275C149.984 30.7275 151.302 30.4232 152.316 29.8148C153.026 29.4092 153.635 28.9021 154.04 28.1923V30.5246H156.981V20.0796C156.981 17.7472 156.373 15.9218 155.054 14.8063C154.04 13.5894 152.215 13.0824 149.781 13.0824ZM152.215 27.4824C151.302 27.9894 150.288 28.2937 149.173 28.2937C147.956 28.2937 147.043 27.9894 146.333 27.4824C145.623 26.9754 145.319 26.2655 145.319 25.4542C145.319 24.7444 145.623 24.0345 146.13 23.5275C146.637 23.0204 147.753 22.7162 149.274 22.7162H154.142V25.15C153.635 26.1641 153.026 26.9754 152.215 27.4824Z" fill="white"/>
<path d="M164.687 13.1833H161.543V30.4228H164.687V13.1833Z" fill="white"/>
<path d="M184.562 16.3275C183.954 15.212 183.143 14.4007 182.027 13.8937C180.912 13.3866 179.695 13.0824 178.275 13.0824C176.754 13.0824 175.334 13.3866 174.117 13.9951C173.204 14.5021 172.495 15.1106 171.988 15.8204V13.1838H168.945V30.4232H172.089V21.4993C172.089 20.2824 172.292 19.1669 172.799 18.3556C173.204 17.5444 173.914 16.8345 174.726 16.4289C175.537 16.0232 176.551 15.8204 177.666 15.8204C179.188 15.8204 180.303 16.2261 181.114 17.1387C181.926 17.95 182.331 19.2683 182.331 20.8908V30.5246H185.475V20.5866C185.475 18.8627 185.171 17.443 184.562 16.3275Z" fill="white"/>
<path d="M22.107 31.6394V4.56338C27.8873 6.28732 32.1465 11.662 32.1465 18.0507C32.1465 24.4394 27.8873 29.8141 22.107 31.6394ZM18.0507 0V15.2113L15.7183 12.8789L15.4141 7.09859L17.8479 0C16.3268 0 14.8056 0.202817 13.3859 0.608451L12.2704 4.05634L9.02535 2.4338C7.70704 3.24507 6.49014 4.05634 5.37465 5.17183L11.4592 8.21408L11.662 11.662L8.21408 11.4592L5.17183 5.37465C4.15775 6.49014 3.24507 7.60563 2.4338 8.92394L4.05634 12.169L0.608451 13.2845C0.202817 14.7042 0 16.2254 0 17.7465L7.2 15.3127L12.9803 15.6169L15.3127 17.9493L12.9803 20.2817L7.2 20.5859L0 18.2535C0 19.7746 0.202817 21.2958 0.608451 22.7155L4.05634 23.831L2.4338 27.0761C3.14366 28.3944 4.05634 29.6113 5.17183 30.6254L8.21408 24.5408L11.662 24.338L11.4592 27.7859L5.37465 30.8282C6.49014 31.8423 7.60563 32.7549 8.92394 33.5662L12.169 31.9437L13.2845 35.3915C14.7042 35.7972 16.2253 36 17.7465 36L15.3127 28.8L15.6169 23.0197L17.9493 20.6873V36C27.9887 36 36.1014 27.8873 36.1014 17.8479C36.1014 7.80845 28.0901 0 18.0507 0Z" fill="#FF00AF"/>
<path d="M138.018 4.05582L135.787 0.303711H134.672V6.28681H135.889V2.73751L137.714 5.67836H138.323L140.047 2.73751V6.28681H141.365V0.303711H140.148L138.018 4.05582Z" fill="white"/>
<path d="M143.799 3.85301H146.537V2.73751H143.799V1.4192H146.942V0.303711H142.48V6.28681H147.044V5.17132H143.799V3.85301Z" fill="white"/>
<path d="M152.723 0.303711H147.551V1.4192H149.478V6.28681H150.796V1.4192H152.723V0.303711Z" fill="white"/>
<path d="M154.648 0.303711L152.012 6.28681H153.431L153.938 4.9685H156.677L157.184 6.28681H158.603L155.967 0.40512H154.648V0.303711ZM154.446 3.95442L155.358 1.72343L156.271 3.95442H154.446Z" fill="white"/>
<path d="M165.095 3.24501C164.892 3.1436 164.689 3.0422 164.385 2.94079C164.081 2.83938 163.878 2.83938 163.675 2.73797C163.473 2.63656 163.168 2.63656 162.966 2.53515C162.763 2.43374 162.56 2.43374 162.458 2.33234C162.357 2.23093 162.256 2.12952 162.256 1.9267C162.256 1.82529 162.256 1.72389 162.357 1.62248C162.458 1.52107 162.56 1.41966 162.763 1.41966C162.966 1.41966 163.168 1.31825 163.371 1.31825C163.675 1.31825 163.878 1.31825 164.182 1.41966C164.487 1.52107 164.689 1.62248 164.994 1.72389L165.399 0.709801C165.095 0.506984 164.791 0.405576 164.487 0.304167C164.081 0.202759 163.777 0.202759 163.371 0.202759C162.763 0.202759 162.357 0.304167 161.951 0.405576C161.546 0.608393 161.343 0.811209 161.14 1.11543C160.937 1.41966 160.836 1.72389 160.836 2.02811C160.836 2.33234 160.937 2.63656 161.039 2.83938C161.14 3.0422 161.343 3.24501 161.546 3.34642C161.749 3.44783 161.951 3.54924 162.256 3.65065C162.56 3.75205 162.763 3.75205 162.966 3.85346C163.168 3.95487 163.473 3.95487 163.675 4.05628C163.878 4.15769 164.081 4.15769 164.182 4.2591C164.284 4.3605 164.385 4.46191 164.385 4.66473C164.385 4.76614 164.385 4.86755 164.284 4.96896C164.182 5.07036 164.081 5.17177 163.878 5.17177C163.675 5.27318 163.473 5.27318 163.27 5.27318C162.864 5.27318 162.56 5.17177 162.256 5.07036C161.951 4.96896 161.647 4.76614 161.343 4.66473L160.836 5.67881C161.14 5.88163 161.444 6.08445 161.85 6.18586C162.256 6.28727 162.763 6.38867 163.168 6.38867C163.777 6.38867 164.182 6.28727 164.588 6.08445C164.994 5.88163 165.196 5.67882 165.399 5.37459C165.602 5.07036 165.704 4.76614 165.704 4.46191C165.704 4.15769 165.602 3.85346 165.501 3.65065C165.501 3.54924 165.298 3.44783 165.095 3.24501Z" fill="white"/>
<path d="M168.134 1.9267C168.337 1.72389 168.54 1.62248 168.742 1.52107C168.945 1.41966 169.249 1.41966 169.554 1.41966C169.858 1.41966 170.162 1.52107 170.365 1.62248C170.568 1.72389 170.872 1.9267 171.075 2.12952L171.987 1.31825C171.683 1.01403 171.379 0.709801 170.973 0.506984C170.568 0.304167 170.061 0.202759 169.554 0.202759C169.047 0.202759 168.641 0.304167 168.235 0.405576C167.83 0.506984 167.525 0.811209 167.221 1.01403C166.917 1.31825 166.714 1.62248 166.511 2.02811C166.309 2.43374 166.309 2.83938 166.309 3.24501C166.309 3.65065 166.41 4.05628 166.511 4.46191C166.714 4.86755 166.917 5.17177 167.221 5.476C167.525 5.78022 167.83 5.98304 168.235 6.08445C168.641 6.18586 169.047 6.28727 169.554 6.28727C170.061 6.28727 170.568 6.18586 170.973 5.98304C171.379 5.78022 171.785 5.57741 171.987 5.17177L171.075 4.36051C170.872 4.56332 170.669 4.76614 170.365 4.86755C170.162 4.96896 169.858 5.07036 169.554 5.07036C169.249 5.07036 169.047 5.07036 168.742 4.96896C168.438 4.86755 168.337 4.76614 168.134 4.56332C167.931 4.36051 167.83 4.15769 167.728 3.95487C167.627 3.75205 167.627 3.44783 167.627 3.1436C167.627 2.83938 167.627 2.63656 167.728 2.33234C167.83 2.02811 168.033 2.12952 168.134 1.9267Z" fill="white"/>
<path d="M174.73 0.303711L172.094 6.1854H173.513L174.021 4.86709H176.759L177.266 6.1854H178.685L176.049 0.303711H174.73ZM174.426 3.95442L175.339 1.72343L176.251 3.95442H174.426Z" fill="white"/>
<path d="M183.349 0.303711V3.95442L180.408 0.303711H179.191V6.28681H180.611V2.63611L183.552 6.28681H184.667V0.303711H183.349Z" fill="white"/>
</svg>
