<svg width="203" height="36" viewBox="0 0 203 36" fill="none" xmlns="http://www.w3.org/2000/svg">
<path d="M148.26 4.44075L146.265 1.17627H145.267V6.43571H146.446V3.35259L147.987 5.89163H148.532L150.073 3.26191V6.43571H151.252V1.17627H150.254L148.26 4.44075Z" fill="white"/>
<path d="M153.428 4.25939H155.967V3.26191H153.428V2.17375H156.239V1.17627H152.25V6.43571H156.33V5.43823H153.428V4.25939Z" fill="white"/>
<path d="M161.408 1.17627H156.784V2.17375H158.507V6.43571H159.776V2.17375H161.408V1.17627Z" fill="white"/>
<path d="M165.398 6.43571H166.668L164.31 1.17627H163.131L160.773 6.43571H162.043L162.496 5.34755H164.945L165.398 6.43571ZM162.859 4.35007L163.675 2.35511L164.491 4.35007H162.859Z" fill="white"/>
<path d="M53.3174 14.9595C52.7733 14.234 52.1386 13.69 51.4131 13.3272C50.325 12.7832 49.1461 12.4204 47.8766 12.4204C46.3351 12.4204 45.0655 12.7832 43.8867 13.4179C42.7078 14.0527 41.801 14.9595 41.0756 16.1383C40.3502 17.3172 40.0781 18.6774 40.0781 20.2189C40.0781 21.7605 40.4408 23.2114 41.0756 24.3902C41.7104 25.569 42.7078 26.4759 43.8867 27.2013C45.0655 27.9267 46.4257 28.1988 47.8766 28.1988C49.2368 28.1988 50.4157 27.9267 51.5038 27.292C52.2293 26.8386 52.864 26.2945 53.4081 25.569V28.0174H56.1285V6.43555H53.3174V14.9595ZM52.6827 23.2114C52.2293 24.0275 51.5945 24.6622 50.7784 25.1156C49.9623 25.569 49.1461 25.7504 48.1487 25.7504C47.1512 25.7504 46.2444 25.569 45.5189 25.1156C44.7935 24.6622 44.1587 24.0275 43.6147 23.2114C43.1612 22.3952 42.8892 21.3978 42.8892 20.3096C42.8892 19.2214 43.1612 18.224 43.6147 17.4078C44.0681 16.5917 44.7028 15.957 45.5189 15.5036C46.3351 15.0502 47.1512 14.8688 48.1487 14.8688C49.1461 14.8688 49.9623 15.0502 50.7784 15.5036C51.5945 15.957 52.1386 16.5917 52.6827 17.4078C53.1361 18.224 53.4081 19.2214 53.4081 20.3096C53.4081 21.3978 53.1361 22.3952 52.6827 23.2114Z" fill="white"/>
<path d="M70.9095 13.5087C69.7307 12.874 68.4611 12.5112 66.9196 12.5112C65.378 12.5112 64.1085 12.874 62.9297 13.5087C61.7508 14.1435 60.844 15.141 60.1186 16.3198C59.3931 17.4986 59.1211 18.8588 59.1211 20.4004C59.1211 21.942 59.4838 23.3022 60.1186 24.481C60.844 25.6598 61.7508 26.5666 63.0203 27.2921C64.2899 28.0175 65.7407 28.2896 67.373 28.2896C68.6425 28.2896 69.8213 28.1082 70.8188 27.6548C71.907 27.2014 72.7231 26.5666 73.4485 25.7505L71.907 23.9369C71.3629 24.5717 70.7281 25.0251 69.912 25.2971C69.1866 25.5692 68.3705 25.7505 67.373 25.7505C66.2848 25.7505 65.2873 25.5692 64.4712 25.1158C63.6551 24.6624 62.9297 24.0276 62.4763 23.2115C62.1135 22.5767 61.9322 21.942 61.8415 21.2165H74.3553C74.3553 21.1258 74.3553 20.9445 74.446 20.7631C74.5367 20.5818 74.446 20.4911 74.446 20.3097C74.446 18.6775 74.0833 17.3173 73.4485 16.1384C72.9951 15.0503 72.0883 14.1435 70.9095 13.5087ZM64.3805 15.5037C65.106 15.0503 66.0128 14.8689 67.0103 14.8689C68.0077 14.8689 68.9145 15.0503 69.64 15.5037C70.3654 15.9571 71.0002 16.5012 71.3629 17.3173C71.7256 17.8614 71.907 18.5868 71.9977 19.3122H62.0229C62.1135 18.5868 62.2949 17.952 62.6576 17.408C63.0203 16.5918 63.5644 15.9571 64.3805 15.5037Z" fill="white"/>
<path d="M90.6778 12.6021H87.8667V28.0177H90.6778V12.6021Z" fill="white"/>
<path d="M83.0607 6.25439C81.4285 6.25439 80.1589 6.7078 79.2521 7.6146C78.3453 8.5214 77.8919 9.70024 77.8919 11.2418V12.602H75.2622V14.869H77.8919V28.0176H80.703V14.9597H85.1463V12.602H80.703V11.2418C80.703 10.335 80.8844 9.70024 81.3378 9.24684C81.7912 8.79344 82.4259 8.5214 83.2421 8.5214C83.6048 8.5214 84.0582 8.61208 84.4209 8.70276C84.7836 8.79344 85.1463 8.9748 85.4184 9.24684L86.2345 7.1612C85.8718 6.88916 85.4184 6.61711 84.7836 6.43575C84.1489 6.25439 83.6955 6.25439 83.0607 6.25439Z" fill="white"/>
<path d="M99.2014 15.5945C100.018 15.1411 100.924 14.9597 101.922 14.9597C102.738 14.9597 103.554 15.1411 104.279 15.5038C105.005 15.8665 105.64 16.4106 106.093 17.2267L108.179 15.8665C107.544 14.7784 106.728 13.9623 105.64 13.4182C104.552 12.8741 103.282 12.6021 101.922 12.6021C100.38 12.6021 98.9294 12.9648 97.6598 13.5995C96.3903 14.2343 95.4835 15.2318 94.7581 16.4106C94.0326 17.5895 93.6699 18.9497 93.6699 20.4912C93.6699 22.0328 94.0326 23.393 94.7581 24.5718C95.4835 25.7507 96.3903 26.6575 97.6598 27.3829C98.9294 28.1083 100.29 28.3804 101.922 28.3804C103.282 28.3804 104.552 28.1083 105.64 27.4736C106.728 26.9295 107.635 26.1134 108.179 25.0252L106.093 23.665C105.549 24.3905 105.005 25.0252 104.279 25.3879C103.554 25.7507 102.738 25.932 101.922 25.932C100.924 25.932 100.018 25.7507 99.2014 25.2973C98.3853 24.8439 97.7505 24.2091 97.2971 23.393C96.8437 22.5769 96.5717 21.5794 96.5717 20.4912C96.5717 19.4031 96.8437 18.4056 97.2971 17.5895C97.7505 16.6827 98.3853 16.0479 99.2014 15.5945Z" fill="white"/>
<path d="M122.234 13.2366C121.237 12.7832 120.149 12.5111 118.879 12.5111C117.519 12.5111 116.249 12.7832 115.161 13.3272C114.436 13.69 113.892 14.234 113.348 14.8688V6.43555H110.537V28.1081H113.348V20.1282C113.348 19.0401 113.529 18.0426 113.982 17.3172C114.345 16.5917 114.98 15.957 115.705 15.5942C116.431 15.2315 117.338 15.0502 118.335 15.0502C119.695 15.0502 120.693 15.4129 121.418 16.1383C122.144 16.8638 122.506 18.0426 122.506 19.4935V28.1081H125.317V19.2214C125.317 17.6799 125.045 16.4104 124.501 15.5036C123.957 14.4154 123.141 13.69 122.234 13.2366Z" fill="white"/>
<path d="M134.839 12.5112C133.569 12.5112 132.481 12.6926 131.302 13.0553C130.214 13.418 129.217 13.8714 128.401 14.5062L129.579 16.5918C130.214 16.0478 130.94 15.685 131.756 15.413C132.662 15.141 133.479 14.9596 134.476 14.9596C135.836 14.9596 136.924 15.3223 137.559 15.9571C138.285 16.5918 138.557 17.4986 138.557 18.6775V19.2216H134.113C132.572 19.2216 131.393 19.4029 130.486 19.8563C129.579 20.3097 128.945 20.7631 128.491 21.4886C128.038 22.214 127.856 22.9394 127.856 23.7556C127.856 24.5717 128.128 25.3878 128.582 26.1132C129.035 26.8387 129.67 27.3828 130.577 27.7455C131.393 28.1082 132.481 28.2896 133.569 28.2896C135.02 28.2896 136.199 28.0175 137.106 27.4734C137.741 27.1107 138.285 26.6573 138.647 26.0226V28.1082H141.277V18.7682C141.277 16.6825 140.733 15.0503 139.554 14.0528C138.557 12.9646 136.924 12.5112 134.839 12.5112ZM137.015 25.3878C136.199 25.8412 135.292 26.1132 134.295 26.1132C133.297 26.1132 132.39 25.9319 131.756 25.3878C131.121 24.9344 130.849 24.2996 130.849 23.5742C130.849 22.9394 131.121 22.3047 131.574 21.8513C132.028 21.3979 133.025 21.1258 134.385 21.1258H138.738V23.3022C138.285 24.209 137.741 24.9344 137.015 25.3878Z" fill="white"/>
<path d="M148.169 12.6021H145.358V28.0177H148.169V12.6021Z" fill="white"/>
<path d="M165.942 15.413C165.398 14.4155 164.673 13.6901 163.675 13.2367C162.678 12.7833 161.59 12.5112 160.32 12.5112C158.96 12.5112 157.69 12.7833 156.602 13.3274C155.786 13.7808 155.151 14.3248 154.698 14.9596V12.6019H151.978V28.1082H154.789V20.1284C154.789 19.0402 154.97 18.0427 155.423 17.3173C155.786 16.5918 156.421 15.9571 157.146 15.5944C157.872 15.2316 158.779 15.0503 159.776 15.0503C161.136 15.0503 162.134 15.413 162.859 16.1384C163.585 16.8639 163.947 18.0427 163.947 19.4936V28.1082H166.758V19.2216C166.758 17.68 166.486 16.4105 165.942 15.413Z" fill="white"/>
<path d="M20.6726 29.1057V4.89408C25.8413 6.43564 29.6499 11.2417 29.6499 16.9545C29.6499 22.6674 25.8413 27.5641 20.6726 29.1057ZM17.0454 0.813477V14.4155L14.9597 12.3298L14.6877 7.16108L16.864 0.813477C15.5038 0.813477 14.1436 0.994837 12.8741 1.35756L11.8766 4.44068L8.97483 2.9898C7.79598 3.71524 6.70782 4.44068 5.71034 5.43816L11.1511 8.15856L11.3325 11.2417L8.24939 11.0603L5.52898 5.61952C4.62218 6.617 3.80606 7.61448 3.08062 8.79332L4.5315 11.6951L1.44838 12.6926C1.08566 13.9621 0.904297 15.3223 0.904297 16.6825L7.34258 14.5062L12.5113 14.7782L14.597 16.8639L12.5113 18.9495L7.34258 19.2215L0.904297 17.1359C0.904297 18.4961 1.08566 19.8563 1.44838 21.1258L4.5315 22.1233L3.08062 25.0251C3.80606 26.2039 4.5315 27.2921 5.52898 28.1989L8.24939 22.7581L11.3325 22.5767L11.1511 25.6598L5.71034 28.3802C6.70782 29.287 7.7053 30.1031 8.88415 30.8286L11.7859 29.3777L12.7834 32.4608C14.0529 32.8236 15.4131 33.0049 16.7733 33.0049L14.597 26.5666L14.869 21.3979L16.9547 19.3122V33.0049C25.932 33.0049 33.1864 25.7505 33.1864 16.7732C33.1864 7.79584 26.0227 0.813477 17.0454 0.813477Z" fill="#FF00AF"/>
</svg>
